<?xml version="1.0" encoding="UTF-8"?> <svg xmlns="http://www.w3.org/2000/svg" width="1930" height="570" viewBox="0 0 1930 570" fill="none"> <g clip-path="url(#clip0)"> <rect width="1930" height="570" fill="#F2F9FC"></rect> <path d="M752.357 150.011C774.975 133.685 803.663 126.011 831.402 129.122C862.693 132.025 892.15 148.885 911.245 173.744C922.106 267.025 1087.81 241.318 1130.94 176.825C1172.45 204.559 1197.34 255.048 1191.96 305.005C1121.32 349.753 1134.62 350.753 1132.89 413.953C1123.66 431.524 1106.34 444.857 1086.53 447.61C1068.39 450.693 1049.65 444.559 1035.64 432.885C1015.31 471.166 968.027 492.322 926.017 481.005C889.19 472.144 859.615 440.174 853.338 402.782C846.879 373.337 775.835 334.825 725.447 311.226C709.935 289.152 702.088 261.775 704.398 234.841C706.767 201.3 724.943 169.388 752.357 150.011Z" fill="#7F1472"></path> <path d="M964.594 102.04C991.978 86.0105 1026.29 82.6031 1056.34 92.7364C1093.85 104.825 1123.39 138.129 1130.94 176.825C1136.57 203.285 1131.98 231.581 1118.63 255.048C1116.08 243.878 1110.19 232.975 1100.18 226.9C1090.59 221.034 1078.96 220.44 1068.03 220.204C1044.59 220.262 1021.14 220.174 997.692 220.262C997.692 250.1 997.692 279.937 997.692 309.804C985.879 306.959 974.481 302.603 963.795 296.856C970.012 271.374 975.902 245.775 982.296 220.322C971.728 220.174 961.189 220.174 950.651 220.351C946.683 238.96 942.596 257.507 938.542 276.085C912.905 249.477 902.719 209.566 911.247 173.744C918.172 143.848 937.891 117.181 964.594 102.04V102.04ZM1184.67 109.062C1206.52 101.181 1230.74 123.759 1224.17 146.099C1219.76 168.085 1189.74 177.685 1173.51 162.129C1155.25 147.611 1162.17 115.136 1184.67 109.062V109.062ZM1028.75 246.928C1044.26 247.522 1060.04 245.536 1075.4 247.996C1091.33 250.337 1092.52 275.285 1077.77 280.145C1061.93 284.856 1045.06 281.448 1028.78 282.425C1028.72 270.603 1028.72 258.752 1028.75 246.928ZM725.448 311.226C738.326 286.159 769.263 273.684 796.054 282.011C803.307 312.767 810.413 343.551 817.786 374.308C829.064 374.455 840.344 374.485 851.623 374.308C853.486 367.937 855.324 361.536 856.952 355.107C860.77 362.041 866.218 368.944 865.626 377.36C865.982 387.314 859.498 395.672 853.34 402.781C838.773 416.381 813.463 408.915 804.906 391.879C783.176 402.337 755.409 399.137 737.822 382.218C718.342 364.795 713.34 334.218 725.448 311.226ZM1118.51 307.018C1139.73 291.522 1170.08 289.804 1191.96 305.005C1209.45 317.033 1220.32 338.248 1219.02 359.581C1218.22 381.3 1204.89 401.893 1185.56 411.73C1169.49 420.233 1149.65 420.915 1132.9 413.953C1115.16 406.396 1101.31 390.603 1096.75 371.789C1122.86 364.144 1134.73 328.915 1118.51 307.018Z" fill="#EF1A8A"></path> <path d="M1028.75 309.715C1028.72 322.337 1028.69 334.989 1028.75 347.642C1041.89 347.642 1055.03 347.672 1068.18 347.672C1076.79 347.818 1086.39 345.684 1091.71 338.307C1095.59 329.122 1093.34 315.344 1082.63 312.144C1065.19 306.662 1046.66 309.863 1028.75 309.715ZM1028.75 246.928C1028.72 258.752 1028.72 270.603 1028.78 282.425C1045.06 281.448 1061.93 284.856 1077.77 280.145C1092.51 275.285 1091.33 250.337 1075.4 247.996C1060.04 245.536 1044.26 247.522 1028.75 246.928ZM997.69 220.262C1021.14 220.174 1044.58 220.262 1068.03 220.204C1078.96 220.44 1090.59 221.034 1100.18 226.9C1110.19 232.975 1116.08 243.878 1118.63 255.048C1119.34 270.574 1112.14 286.159 1098.11 293.625C1105.6 296.915 1112.82 300.974 1118.51 307.018C1134.73 328.915 1122.86 364.144 1096.75 371.789C1064.03 376.885 1030.7 373.212 997.69 374.277C997.69 352.795 997.719 331.286 997.69 309.804C997.69 279.937 997.69 250.1 997.69 220.262V220.262ZM781.695 220.262C792.353 220.204 802.981 220.233 813.638 220.233C821.1 255.196 828.649 290.159 836.287 325.063C845.553 290.159 854.286 255.078 863.937 220.262C876.253 220.204 888.597 220.174 900.914 220.322C909.765 255.996 918.884 291.61 927.498 327.314C931.197 310.248 934.899 293.181 938.54 276.085C942.595 257.507 946.682 238.96 950.649 220.351C961.188 220.174 971.726 220.174 982.295 220.322C975.901 245.775 970.01 271.374 963.793 296.856C957.428 322.633 951.537 348.499 945.084 374.248C934.071 374.338 923.087 374.338 912.074 374.248C901.653 336.203 891.765 298.011 881.878 259.848C873.469 291.581 865.121 323.314 856.951 355.107C855.323 361.536 853.485 367.937 851.622 374.308C840.342 374.485 829.063 374.455 817.784 374.308C810.412 343.551 803.305 312.767 796.052 282.011C791.377 261.389 786.196 240.915 781.695 220.262" fill="white"></path> </g> <defs> <clipPath id="clip0"> <rect width="1930" height="570" fill="white"></rect> </clipPath> </defs> </svg> 