<svg xmlns="http://www.w3.org/2000/svg" viewBox="0 0 521.27 397.05"><defs><style>.cls-1{fill:#7f1472;}.cls-2{fill:#ef1a8a;}.cls-3{fill:#fff;}</style></defs><g id="Layer_2" data-name="Layer 2"><g id="Layer_1-2" data-name="Layer 1"><path class="cls-1" d="M48.36,63a114.63,114.63,0,0,1,79-20.89c31.29,2.91,60.75,19.77,79.84,44.62,10.87,93.29,176.57,67.58,219.7,3.09,41.51,27.73,66.4,78.22,61,128.18-70.64,44.74-57.34,45.74-59.07,108.94-9.23,17.57-26.55,30.91-46.36,33.66-18.14,3.08-36.88-3.05-50.89-14.72C311.31,384.17,264,405.32,222,394c-36.83-8.87-66.41-40.84-72.68-78.23-6.46-29.44-77.51-67.95-127.89-91.55C5.93,202.15-1.91,174.78.4,147.84,2.77,114.3,20.94,82.39,48.36,63Z"/><path class="cls-2" d="M260.59,15a112.7,112.7,0,0,1,91.75-9.3c37.51,12.09,67.05,45.39,74.6,84.09a112.38,112.38,0,0,1-12.31,78.22c-2.55-11.17-8.44-22.07-18.45-28.15C386.59,134,375,133.44,364,133.2c-23.44.06-46.89,0-70.34.06V222.8a141.76,141.76,0,0,1-33.9-12.94c6.22-25.49,12.11-51.08,18.51-76.54q-15.85-.23-31.65,0c-4,18.61-8.05,37.16-12.11,55.74-25.64-26.61-35.82-66.52-27.29-102.35A112.51,112.51,0,0,1,260.59,15Zm220.08,7c21.85-7.88,46.07,14.7,39.5,37-4.41,22-34.43,31.59-50.66,16-18.26-14.52-11.34-47,11.16-53.07ZM324.75,159.93c15.51.59,31.29-1.39,46.65,1.07,15.93,2.34,17.12,27.29,2.37,32.15-15.84,4.71-32.71,1.3-49,2.28Q324.69,177.69,324.75,159.93Zm-303.3,64.3c12.88-25.07,43.81-37.55,70.6-29.22,7.26,30.76,14.36,61.54,21.74,92.3,11.27.15,22.55.18,33.83,0,1.87-6.37,3.7-12.77,5.33-19.2,3.82,6.93,9.27,13.83,8.68,22.25.35,9.95-6.13,18.31-12.29,25.42-14.57,13.6-39.88,6.14-48.43-10.9-21.73,10.46-49.5,7.26-67.09-9.66C14.34,277.8,9.34,247.22,21.45,224.23ZM414.51,220c21.22-15.5,51.57-17.22,73.45-2,17.49,12,28.36,33.24,27.06,54.57-.8,21.72-14.13,42.31-33.46,52.15A62.7,62.7,0,0,1,428.9,327c-17.74-7.55-31.59-23.35-36.15-42.16C418.86,277.14,430.73,241.92,414.51,220Z"/><path class="cls-3" d="M324.75,222.72c0,12.62-.06,25.27,0,37.92q19.71,0,39.43,0c8.61.15,18.21-2,23.53-9.36,3.88-9.19,1.63-23-9.08-26.17C361.19,219.66,342.66,222.86,324.75,222.72Zm0-62.79q0,17.73,0,35.5c16.28-1,33.15,2.43,49-2.28,14.74-4.86,13.56-29.81-2.37-32.15C356,158.54,340.26,160.52,324.75,159.93Zm-31.06-26.67c23.45-.09,46.89,0,70.34-.06,10.93.24,22.56.83,32.15,6.7,10,6.08,15.9,17,18.45,28.15.71,15.52-6.49,31.11-20.52,38.58,7.49,3.29,14.71,7.34,20.4,13.39,16.22,21.9,4.35,57.12-21.76,64.77-32.72,5.1-66.05,1.42-99.06,2.49q0-32.22,0-64.48V133.26Zm-216,0c10.66-.06,21.29,0,32,0q11.19,52.46,22.65,104.83c9.26-34.9,18-70,27.65-104.8,12.31-.06,24.66-.09,37,.06,8.85,35.68,18,71.29,26.59,107q5.55-25.59,11-51.22c4.05-18.58,8.14-37.13,12.11-55.74q15.81-.27,31.64,0c-6.39,25.46-12.28,51.05-18.5,76.54-6.36,25.77-12.25,51.64-18.71,77.39-11,.09-22,.09-33,0-10.42-38.05-20.31-76.24-30.19-114.4q-12.62,47.6-24.93,95.26c-1.63,6.43-3.47,12.83-5.33,19.2-11.28.18-22.56.15-33.84,0-7.37-30.76-14.48-61.54-21.73-92.3-4.67-20.62-9.85-41.09-14.36-61.75"/></g></g></svg>